<svg id="SvgjsSvg1006" width="592.25" height="371" xmlns="http://www.w3.org/2000/svg" version="1.1" xmlns:xlink="http://www.w3.org/1999/xlink" xmlns:svgjs="http://svgjs.com/svgjs"><defs id="SvgjsDefs1007"></defs><g id="SvgjsG1008" transform="matrix(6.123233995736766e-17,1,-1,6.123233995736766e-17,160.25,177)"><path id="SvgjsPath1009" d="M 0 126.5Q 9 126.5 9 117.5L 9 72.25Q 9 63.25 22 63.25Q 9 63.25 9 54.25L 9 9Q 9 0 0 0" stroke="rgba(50,50,50,1)" stroke-width="2" fill="none"></path><path id="SvgjsPath1010" d="M 0 0L 97.99999999999999 0L 97.99999999999999 126.5L 0 126.5Z" stroke="none" fill="none"></path><g id="SvgjsG1011"><text id="SvgjsText1012" font-family="微软雅黑" text-anchor="start" font-size="13px" width="71px" fill="#323232" font-weight="400" align="middle" anchor="start" family="微软雅黑" size="13px" weight="400" font-style="" opacity="1" y="53.3" transform="rotate(0)"></text></g></g><g id="SvgjsG1013" transform="translate(53.00000000000003,211)"><path id="SvgjsPath1014" d="M 0 0L 88 0L 88 30L 0 30Z" stroke="rgba(50,50,50,1)" stroke-width="2" fill-opacity="1" fill="#e6ffcc"></path><g id="SvgjsG1015"><text id="SvgjsText1016" font-family="微软雅黑" text-anchor="middle" font-size="13px" width="68px" fill="#323232" font-weight="400" align="middle" anchor="middle" family="微软雅黑" size="13px" weight="400" font-style="" opacity="1" y="5.05" transform="rotate(0)"><tspan id="SvgjsTspan1017" dy="16" x="44"><tspan id="SvgjsTspan1018" style="text-decoration:;">[U8]</tspan></tspan></text></g></g><g id="SvgjsG1019" transform="translate(32.25,141)"><path id="SvgjsPath1020" d="M 0 0L 28.75000000000003 0L 28.75000000000003 30L 0 30Z" stroke="rgba(50,50,50,1)" stroke-width="2" fill-opacity="1" fill="#ffffff"></path><g id="SvgjsG1021"><text id="SvgjsText1022" font-family="微软雅黑" text-anchor="middle" font-size="13px" width="9px" fill="#323232" font-weight="400" align="middle" anchor="middle" family="微软雅黑" size="13px" weight="400" font-style="" opacity="1" y="5.05" transform="rotate(0)"><tspan id="SvgjsTspan1023" dy="16" x="14.5"><tspan id="SvgjsTspan1024" style="text-decoration:;">0</tspan></tspan></text></g></g><g id="SvgjsG1025" transform="translate(66.25000000000011,141)"><path id="SvgjsPath1026" d="M 0 0L 28.75000000000003 0L 28.75000000000003 30L 0 30Z" stroke="rgba(50,50,50,1)" stroke-width="2" fill-opacity="1" fill="#ffffff"></path><g id="SvgjsG1027"><text id="SvgjsText1028" font-family="微软雅黑" text-anchor="middle" font-size="13px" width="9px" fill="#323232" font-weight="400" align="middle" anchor="middle" family="微软雅黑" size="13px" weight="400" font-style="" opacity="1" y="5.05" transform="rotate(0)"><tspan id="SvgjsTspan1029" dy="16" x="14.5"><tspan id="SvgjsTspan1030" style="text-decoration:;">1</tspan></tspan></text></g></g><g id="SvgjsG1031" transform="translate(100.49999999999997,141)"><path id="SvgjsPath1032" d="M 0 0L 28.75000000000003 0L 28.75000000000003 30L 0 30Z" stroke="rgba(50,50,50,1)" stroke-width="2" fill-opacity="1" fill="#ffffff"></path><g id="SvgjsG1033"><text id="SvgjsText1034" font-family="微软雅黑" text-anchor="middle" font-size="13px" width="9px" fill="#323232" font-weight="400" align="middle" anchor="middle" family="微软雅黑" size="13px" weight="400" font-style="" opacity="1" y="5.05" transform="rotate(0)"><tspan id="SvgjsTspan1035" dy="16" x="14.5"><tspan id="SvgjsTspan1036" style="text-decoration:;">0</tspan></tspan></text></g></g><g id="SvgjsG1037" transform="translate(134.75,141)"><path id="SvgjsPath1038" d="M 0 0L 28.75000000000003 0L 28.75000000000003 30L 0 30Z" stroke="rgba(50,50,50,1)" stroke-width="2" fill-opacity="1" fill="#ffffff"></path><g id="SvgjsG1039"><text id="SvgjsText1040" font-family="微软雅黑" text-anchor="middle" font-size="13px" width="9px" fill="#323232" font-weight="400" align="middle" anchor="middle" family="微软雅黑" size="13px" weight="400" font-style="" opacity="1" y="5.05" transform="rotate(0)"><tspan id="SvgjsTspan1041" dy="16" x="14.5"><tspan id="SvgjsTspan1042" style="text-decoration:;">0</tspan></tspan></text></g></g><g id="SvgjsG1043" transform="matrix(6.123233995736766e-17,1,-1,6.123233995736766e-17,164.25000000000006,25.000000000000057)"><path id="SvgjsPath1044" d="M 108.99999999999999 0Q 99.99999999999999 0 99.99999999999999 9L 99.99999999999999 58.25000000000006Q 99.99999999999999 67.25000000000006 86.99999999999999 67.25000000000006Q 99.99999999999999 67.25000000000006 99.99999999999999 76.25000000000006L 99.99999999999999 125.50000000000011Q 99.99999999999999 134.5000000000001 108.99999999999999 134.5000000000001" stroke="rgba(50,50,50,1)" stroke-width="2" fill="none"></path><path id="SvgjsPath1045" d="M 0 0L 108.99999999999999 0L 108.99999999999999 134.5000000000001L 0 134.5000000000001Z" stroke="none" fill="none"></path><g id="SvgjsG1046"><text id="SvgjsText1047" font-family="微软雅黑" text-anchor="end" font-size="13px" width="82px" fill="#323232" font-weight="400" align="middle" anchor="end" family="微软雅黑" size="13px" weight="400" font-style="" opacity="1" y="57.300000000000054" transform="rotate(0)"></text></g></g><g id="SvgjsG1048" transform="translate(24.999999999999943,71)"><path id="SvgjsPath1049" d="M 0 0L 144.00000000000006 0L 144.00000000000006 40L 0 40Z" stroke="none" fill="none"></path><g id="SvgjsG1050"><text id="SvgjsText1051" font-family="微软雅黑" text-anchor="middle" font-size="13px" width="145px" fill="#323232" font-weight="400" align="middle" anchor="middle" family="微软雅黑" size="13px" weight="400" font-style="" opacity="1" y="2.05" transform="rotate(0)"><tspan id="SvgjsTspan1052" dy="16" x="72.5"><tspan id="SvgjsTspan1053" style="text-decoration:;">BitMap</tspan></tspan><tspan id="SvgjsTspan1054" dy="16" x="72.5"><tspan id="SvgjsTspan1055" style="text-decoration:;">(标记哪些索引已失效)</tspan></tspan></text></g></g><g id="SvgjsG1056" transform="translate(146.25,211)"><path id="SvgjsPath1057" d="M 0 0L 88 0L 88 30L 0 30Z" stroke="rgba(50,50,50,1)" stroke-width="2" fill-opacity="1" fill="#ffffff"></path><g id="SvgjsG1058"><text id="SvgjsText1059" font-family="微软雅黑" text-anchor="middle" font-size="13px" width="68px" fill="#323232" font-weight="400" align="middle" anchor="middle" family="微软雅黑" size="13px" weight="400" font-style="" opacity="1" y="5.05" transform="rotate(0)"><tspan id="SvgjsTspan1060" dy="16" x="44"><tspan id="SvgjsTspan1061" style="text-decoration:;">U64</tspan></tspan></text></g></g><g id="SvgjsG1062" transform="translate(240.25,211)"><path id="SvgjsPath1063" d="M 0 0L 88 0L 88 30L 0 30Z" stroke="rgba(50,50,50,1)" stroke-width="2" fill-opacity="1" fill="#ffffff"></path><g id="SvgjsG1064"><text id="SvgjsText1065" font-family="微软雅黑" text-anchor="middle" font-size="13px" width="68px" fill="#323232" font-weight="400" align="middle" anchor="middle" family="微软雅黑" size="13px" weight="400" font-style="" opacity="1" y="5.05" transform="rotate(0)"><tspan id="SvgjsTspan1066" dy="16" x="44"><tspan id="SvgjsTspan1067" style="text-decoration:;">U64</tspan></tspan></text></g></g><g id="SvgjsG1068" transform="translate(333.25,211)"><path id="SvgjsPath1069" d="M 0 0L 83 0L 98 15L 83 30L 0 30L 0 0Z" stroke="rgba(50,50,50,1)" stroke-width="2" fill-opacity="1" fill="#ffffff"></path><g id="SvgjsG1070"><text id="SvgjsText1071" font-family="微软雅黑" text-anchor="middle" font-size="13px" width="78px" fill="#323232" font-weight="400" align="middle" anchor="middle" family="微软雅黑" size="13px" weight="400" font-style="" opacity="1" y="5.05" transform="rotate(0)"><tspan id="SvgjsTspan1072" dy="16" x="49"><tspan id="SvgjsTspan1073" style="text-decoration:;">U64</tspan></tspan></text></g></g><g id="SvgjsG1074" transform="matrix(6.123233995736766e-17,1,-1,6.123233995736766e-17,416.25,249)"><path id="SvgjsPath1075" d="M 0 269Q 9 269 9 260L 9 143.5Q 9 134.5 22 134.5Q 9 134.5 9 125.5L 9 9Q 9 0 0 0" stroke="rgba(50,50,50,1)" stroke-width="2" fill="none"></path><path id="SvgjsPath1076" d="M 0 0L 96.99999999999997 0L 96.99999999999997 269L 0 269Z" stroke="none" fill="none"></path><g id="SvgjsG1077"><text id="SvgjsText1078" font-family="微软雅黑" text-anchor="start" font-size="13px" width="70px" fill="#323232" font-weight="400" align="middle" anchor="start" family="微软雅黑" size="13px" weight="400" font-style="" opacity="1" y="124.55" transform="rotate(0)"></text></g></g><g id="SvgjsG1079" transform="translate(219.25,262)"><path id="SvgjsPath1080" d="M 0 0L 120 0L 120 40L 0 40Z" stroke="none" fill="none"></path><g id="SvgjsG1081"><text id="SvgjsText1082" font-family="微软雅黑" text-anchor="middle" font-size="13px" width="120px" fill="#323232" font-weight="400" align="middle" anchor="middle" family="微软雅黑" size="13px" weight="400" font-style="" opacity="1" y="10.05" transform="rotate(0)"><tspan id="SvgjsTspan1083" dy="16" x="60"><tspan id="SvgjsTspan1084" style="text-decoration:;">失效索引列表</tspan></tspan></text></g></g><g id="SvgjsG1085" transform="translate(467.25,126)"><path id="SvgjsPath1086" d="M 0 140Q 9 140 9 131L 9 79Q 9 70 22 70Q 9 70 9 61L 9 9Q 9 0 0 0" stroke="rgba(50,50,50,1)" stroke-width="2" fill="none"></path><path id="SvgjsPath1087" d="M 0 0L 100 0L 100 140L 0 140Z" stroke="none" fill="none"></path><g id="SvgjsG1088"><text id="SvgjsText1089" font-family="微软雅黑" text-anchor="start" font-size="13px" width="73px" fill="#323232" font-weight="400" align="middle" anchor="start" family="微软雅黑" size="13px" weight="400" font-style="" opacity="1" y="20.05" transform="rotate(0)"><tspan id="SvgjsTspan1090" dy="16" x="27"><tspan id="SvgjsTspan1091" style="text-decoration:;">以链表形式</tspan></tspan><tspan id="SvgjsTspan1092" dy="16" x="27"><tspan id="SvgjsTspan1093" style="text-decoration:;">存储，单个</tspan></tspan><tspan id="SvgjsTspan1094" dy="16" x="27"><tspan id="SvgjsTspan1095" style="text-decoration:;">分片内部布</tspan></tspan><tspan id="SvgjsTspan1096" dy="16" x="27"><tspan id="SvgjsTspan1097" style="text-decoration:;">局为BitMap</tspan></tspan><tspan id="SvgjsTspan1098" dy="16" x="27"><tspan id="SvgjsTspan1099" style="text-decoration:;">分配表加失</tspan></tspan><tspan id="SvgjsTspan1100" dy="16" x="27"><tspan id="SvgjsTspan1101" style="text-decoration:;">效索引列表</tspan></tspan></text></g></g></svg>