<svg id="SvgjsSvg1006" width="1000" height="298" xmlns="http://www.w3.org/2000/svg" version="1.1" xmlns:xlink="http://www.w3.org/1999/xlink" xmlns:svgjs="http://svgjs.com/svgjs"><defs id="SvgjsDefs1007"></defs><g id="SvgjsG1008" transform="matrix(6.123233995736766e-17,1,-1,6.123233995736766e-17,497.9999999999999,25.0000000000001)"><path id="SvgjsPath1009" d="M 106.49999999999983 0Q 97.49999999999983 0 97.49999999999983 9L 97.49999999999983 218.75000000000003Q 97.49999999999983 227.75000000000003 84.49999999999983 227.75000000000003Q 97.49999999999983 227.75000000000003 97.49999999999983 236.75000000000003L 97.49999999999983 446.50000000000006Q 97.49999999999983 455.50000000000006 106.49999999999983 455.50000000000006" stroke="rgba(50,50,50,1)" stroke-width="2" fill="none"></path><path id="SvgjsPath1010" d="M 0 0L 106.49999999999983 0L 106.49999999999983 455.50000000000006L 0 455.50000000000006Z" stroke="none" fill="none"></path><g id="SvgjsG1011"><text id="SvgjsText1012" font-family="微软雅黑" text-anchor="end" font-size="13px" width="80px" fill="#323232" font-weight="400" align="middle" anchor="end" family="微软雅黑" size="13px" weight="400" font-style="" opacity="1" y="217.80000000000004" transform="rotate(0)"></text></g></g><g id="SvgjsG1013" transform="translate(41,140)"><path id="SvgjsPath1014" d="M 0 0L 88 0L 88 30L 0 30Z" stroke="rgba(50,50,50,1)" stroke-width="2" fill-opacity="1" fill="#ffffff"></path><g id="SvgjsG1015"><text id="SvgjsText1016" font-family="微软雅黑" text-anchor="middle" font-size="13px" width="68px" fill="#323232" font-weight="400" align="middle" anchor="middle" family="微软雅黑" size="13px" weight="400" font-style="" opacity="1" y="5.05" transform="rotate(0)"><tspan id="SvgjsTspan1017" dy="16" x="44"><tspan id="SvgjsTspan1018" style="text-decoration:;">U32</tspan></tspan></text></g></g><g id="SvgjsG1019" transform="translate(138,138.5)"><path id="SvgjsPath1020" d="M 0 0L 88 0L 88 30L 0 30Z" stroke="rgba(50,50,50,1)" stroke-width="2" fill-opacity="1" fill="#ffffff"></path><g id="SvgjsG1021"><text id="SvgjsText1022" font-family="微软雅黑" text-anchor="middle" font-size="13px" width="68px" fill="#323232" font-weight="400" align="middle" anchor="middle" family="微软雅黑" size="13px" weight="400" font-style="" opacity="1" y="5.05" transform="rotate(0)"><tspan id="SvgjsTspan1023" dy="16" x="44"><tspan id="SvgjsTspan1024" style="text-decoration:;">U8</tspan></tspan></text></g></g><g id="SvgjsG1025" transform="translate(233,138.5)"><path id="SvgjsPath1026" d="M 0 0L 88 0L 88 30L 0 30Z" stroke="rgba(50,50,50,1)" stroke-width="2" fill-opacity="1" fill="#ffcccc"></path><g id="SvgjsG1027"><text id="SvgjsText1028" font-family="微软雅黑" text-anchor="middle" font-size="13px" width="68px" fill="#323232" font-weight="400" align="middle" anchor="middle" family="微软雅黑" size="13px" weight="400" font-style="" opacity="1" y="5.05" transform="rotate(0)"></text></g></g><g id="SvgjsG1029" transform="translate(329,138.5)"><path id="SvgjsPath1030" d="M 0 0L 88 0L 88 30L 0 30Z" stroke="rgba(50,50,50,1)" stroke-width="2" fill-opacity="1" fill="#ccffcc"></path><g id="SvgjsG1031"><text id="SvgjsText1032" font-family="微软雅黑" text-anchor="middle" font-size="13px" width="68px" fill="#323232" font-weight="400" align="middle" anchor="middle" family="微软雅黑" size="13px" weight="400" font-style="" opacity="1" y="5.05" transform="rotate(0)"><tspan id="SvgjsTspan1033" dy="16" x="44"><tspan id="SvgjsTspan1034" style="text-decoration:;">U64</tspan></tspan></text></g></g><g id="SvgjsG1035" transform="translate(423,138.5)"><path id="SvgjsPath1036" d="M 0 0L 74.16666666666667 0L 89 15L 74.16666666666667 30L 0 30L 0 0Z" stroke="rgba(50,50,50,1)" stroke-width="2" fill-opacity="1" fill="#ccffcc"></path><g id="SvgjsG1037"><text id="SvgjsText1038" font-family="微软雅黑" text-anchor="middle" font-size="13px" width="69px" fill="#323232" font-weight="400" align="middle" anchor="middle" family="微软雅黑" size="13px" weight="400" font-style="" opacity="1" y="5.05" transform="rotate(0)"><tspan id="SvgjsTspan1039" dy="16" x="44.5"><tspan id="SvgjsTspan1040" style="text-decoration:;">U64</tspan></tspan></text></g></g><g id="SvgjsG1041" transform="matrix(6.123233995736766e-17,1,-1,6.123233995736766e-17,127.5,174.5)"><path id="SvgjsPath1042" d="M 0 85Q 9 85 9 76.5L 9 51Q 9 42.5 22 42.5Q 9 42.5 9 34L 9 8.5Q 9 0 0 0" stroke="rgba(50,50,50,1)" stroke-width="2" fill="none"></path><path id="SvgjsPath1043" d="M 0 0L 98 0L 98 85L 0 85Z" stroke="none" fill="none"></path><g id="SvgjsG1044"><text id="SvgjsText1045" font-family="微软雅黑" text-anchor="start" font-size="13px" width="71px" fill="#323232" font-weight="400" align="middle" anchor="start" family="微软雅黑" size="13px" weight="400" font-style="" opacity="1" y="32.55" transform="rotate(0)"></text></g></g><g id="SvgjsG1046" transform="translate(210.0000000000001,58.5)"><path id="SvgjsPath1047" d="M 0 0L 120 0L 120 40L 0 40Z" stroke="none" fill="none"></path><g id="SvgjsG1048"><text id="SvgjsText1049" font-family="微软雅黑" text-anchor="middle" font-size="13px" width="120px" fill="#323232" font-weight="400" align="middle" anchor="middle" family="微软雅黑" size="13px" weight="400" font-style="" opacity="1" y="2.05" transform="rotate(0)"><tspan id="SvgjsTspan1050" dy="16" x="60"><tspan id="SvgjsTspan1051" style="text-decoration:;">文件索引项</tspan></tspan><tspan id="SvgjsTspan1052" dy="16" x="60"><tspan id="SvgjsTspan1053" style="text-decoration:;">(尾部长度保证4KB)</tspan></tspan></text></g></g><g id="SvgjsG1054" transform="translate(25,197.5)"><path id="SvgjsPath1055" d="M 0 0L 120 0L 120 40L 0 40Z" stroke="none" fill="none"></path><g id="SvgjsG1056"><text id="SvgjsText1057" font-family="微软雅黑" text-anchor="middle" font-size="13px" width="120px" fill="#323232" font-weight="400" align="middle" anchor="middle" family="微软雅黑" size="13px" weight="400" font-style="" opacity="1" y="2.05" transform="rotate(0)"><tspan id="SvgjsTspan1058" dy="16" x="60"><tspan id="SvgjsTspan1059" style="text-decoration:;">索引项总长度</tspan></tspan><tspan id="SvgjsTspan1060" dy="16" x="60"><tspan id="SvgjsTspan1061" style="text-decoration:;">（包含自身）</tspan></tspan></text></g></g><g id="SvgjsG1062" transform="matrix(6.123233995736766e-17,1,-1,6.123233995736766e-17,225.5,174.5)"><path id="SvgjsPath1063" d="M 0 85Q 9 85 9 76.5L 9 51Q 9 42.5 22 42.5Q 9 42.5 9 34L 9 8.5Q 9 0 0 0" stroke="rgba(50,50,50,1)" stroke-width="2" fill="none"></path><path id="SvgjsPath1064" d="M 0 0L 98 0L 98 85L 0 85Z" stroke="none" fill="none"></path><g id="SvgjsG1065"><text id="SvgjsText1066" font-family="微软雅黑" text-anchor="start" font-size="13px" width="71px" fill="#323232" font-weight="400" align="middle" anchor="start" family="微软雅黑" size="13px" weight="400" font-style="" opacity="1" y="32.55" transform="rotate(0)"></text></g></g><g id="SvgjsG1067" transform="translate(123,197.5)"><path id="SvgjsPath1068" d="M 0 0L 120 0L 120 40L 0 40Z" stroke="none" fill="none"></path><g id="SvgjsG1069"><text id="SvgjsText1070" font-family="微软雅黑" text-anchor="middle" font-size="13px" width="120px" fill="#323232" font-weight="400" align="middle" anchor="middle" family="微软雅黑" size="13px" weight="400" font-style="" opacity="1" y="2.05" transform="rotate(0)"><tspan id="SvgjsTspan1071" dy="16" x="60"><tspan id="SvgjsTspan1072" style="text-decoration:;">键长度</tspan></tspan><tspan id="SvgjsTspan1073" dy="16" x="60"><tspan id="SvgjsTspan1074" style="text-decoration:;">（最大255）</tspan></tspan></text></g></g><g id="SvgjsG1075" transform="matrix(6.123233995736766e-17,1,-1,6.123233995736766e-17,319.5,174.5)"><path id="SvgjsPath1076" d="M 0 85Q 9 85 9 76.5L 9 51Q 9 42.5 22 42.5Q 9 42.5 9 34L 9 8.5Q 9 0 0 0" stroke="rgba(50,50,50,1)" stroke-width="2" fill="none"></path><path id="SvgjsPath1077" d="M 0 0L 98 0L 98 85L 0 85Z" stroke="none" fill="none"></path><g id="SvgjsG1078"><text id="SvgjsText1079" font-family="微软雅黑" text-anchor="start" font-size="13px" width="71px" fill="#323232" font-weight="400" align="middle" anchor="start" family="微软雅黑" size="13px" weight="400" font-style="" opacity="1" y="32.55" transform="rotate(0)"></text></g></g><g id="SvgjsG1080" transform="translate(217,188.5)"><path id="SvgjsPath1081" d="M 0 0L 120 0L 120 40L 0 40Z" stroke="none" fill="none"></path><g id="SvgjsG1082"><text id="SvgjsText1083" font-family="微软雅黑" text-anchor="middle" font-size="13px" width="120px" fill="#323232" font-weight="400" align="middle" anchor="middle" family="微软雅黑" size="13px" weight="400" font-style="" opacity="1" y="10.05" transform="rotate(0)"><tspan id="SvgjsTspan1084" dy="16" x="60"><tspan id="SvgjsTspan1085" style="text-decoration:;">键字符串内容</tspan></tspan></text></g></g><g id="SvgjsG1086" transform="matrix(6.123233995736766e-17,1,-1,6.123233995736766e-17,497,174)"><path id="SvgjsPath1087" d="M 0 167Q 9 167 9 158L 9 92.5Q 9 83.5 22 83.5Q 9 83.5 9 74.5L 9 9Q 9 0 0 0" stroke="rgba(50,50,50,1)" stroke-width="2" fill="none"></path><path id="SvgjsPath1088" d="M 0 0L 99 0L 99 167L 0 167Z" stroke="none" fill="none"></path><g id="SvgjsG1089"><text id="SvgjsText1090" font-family="微软雅黑" text-anchor="start" font-size="13px" width="72px" fill="#323232" font-weight="400" align="middle" anchor="start" family="微软雅黑" size="13px" weight="400" font-style="" opacity="1" y="73.55" transform="rotate(0)"></text></g></g><g id="SvgjsG1091" transform="translate(353.5,203.5)"><path id="SvgjsPath1092" d="M 0 0L 120 0L 120 40L 0 40Z" stroke="none" fill="none"></path><g id="SvgjsG1093"><text id="SvgjsText1094" font-family="微软雅黑" text-anchor="middle" font-size="13px" width="120px" fill="#323232" font-weight="400" align="middle" anchor="middle" family="微软雅黑" size="13px" weight="400" font-style="" opacity="1" y="-5.95" transform="rotate(0)"><tspan id="SvgjsTspan1095" dy="16" x="60"><tspan id="SvgjsTspan1096" style="text-decoration:;">分配表</tspan></tspan><tspan id="SvgjsTspan1097" dy="16" x="60"><tspan id="SvgjsTspan1098" style="text-decoration:;">（按顺序的分片索引</tspan></tspan><tspan id="SvgjsTspan1099" dy="16" x="60"><tspan id="SvgjsTspan1100" style="text-decoration:;">列表）</tspan></tspan></text></g></g><g id="SvgjsG1101" transform="translate(546,98.5)"><path id="SvgjsPath1102" d="M 0 140Q 9 140 9 131L 9 79Q 9 70 22 70Q 9 70 9 61L 9 9Q 9 0 0 0" stroke="rgba(50,50,50,1)" stroke-width="2" fill="none"></path><path id="SvgjsPath1103" d="M 0 0L 100 0L 100 140L 0 140Z" stroke="none" fill="none"></path><g id="SvgjsG1104"><text id="SvgjsText1105" font-family="微软雅黑" text-anchor="start" font-size="13px" width="73px" fill="#323232" font-weight="400" align="middle" anchor="start" family="微软雅黑" size="13px" weight="400" font-style="" opacity="1" y="44.05" transform="rotate(0)"><tspan id="SvgjsTspan1106" dy="16" x="27"><tspan id="SvgjsTspan1107" style="text-decoration:;">文件索引列</tspan></tspan><tspan id="SvgjsTspan1108" dy="16" x="27"><tspan id="SvgjsTspan1109" style="text-decoration:;">表以链表形</tspan></tspan><tspan id="SvgjsTspan1110" dy="16" x="27"><tspan id="SvgjsTspan1111" style="text-decoration:;">式存储</tspan></tspan></text></g></g></svg>