<svg id="SvgjsSvg1006" width="1000" height="384.5" xmlns="http://www.w3.org/2000/svg" version="1.1" xmlns:xlink="http://www.w3.org/1999/xlink" xmlns:svgjs="http://svgjs.com/svgjs"><defs id="SvgjsDefs1007"></defs><g id="SvgjsG1008" transform="matrix(6.123233995736766e-17,1,-1,6.123233995736766e-17,637.75,109.49999999999997)"><path id="SvgjsPath1009" d="M 110.99999999999994 0Q 101.99999999999994 0 101.99999999999994 9L 101.99999999999994 157.74999999999994Q 101.99999999999994 166.74999999999994 88.99999999999994 166.74999999999994Q 101.99999999999994 166.74999999999994 101.99999999999994 175.74999999999994L 101.99999999999994 324.4999999999999Q 101.99999999999994 333.4999999999999 110.99999999999994 333.4999999999999" stroke="rgba(50,50,50,1)" stroke-width="2" fill="none"></path><path id="SvgjsPath1010" d="M 0 0L 110.99999999999994 0L 110.99999999999994 333.4999999999999L 0 333.4999999999999Z" stroke="none" fill="none"></path><g id="SvgjsG1011"><text id="SvgjsText1012" font-family="微软雅黑" text-anchor="end" font-size="13px" width="84px" fill="#323232" font-weight="400" align="middle" anchor="end" family="微软雅黑" size="13px" weight="400" font-style="" opacity="1" y="156.79999999999995" transform="rotate(0)"></text></g></g><g id="SvgjsG1013" transform="translate(238.5,143.5)"><path id="SvgjsPath1014" d="M 0 0L 88 0L 88 30L 0 30Z" stroke="rgba(50,50,50,1)" stroke-width="2" fill-opacity="1" fill="#ffffff"></path><g id="SvgjsG1015"><text id="SvgjsText1016" font-family="微软雅黑" text-anchor="middle" font-size="13px" width="68px" fill="#323232" font-weight="400" align="middle" anchor="middle" family="微软雅黑" size="13px" weight="400" font-style="" opacity="1" y="5.05" transform="rotate(0)"><tspan id="SvgjsTspan1017" dy="16" x="44"><tspan id="SvgjsTspan1018" style="text-decoration:;">4KB</tspan></tspan></text></g></g><g id="SvgjsG1019" transform="translate(335.5,143.5)"><path id="SvgjsPath1020" d="M 0 0L 88 0L 88 30L 0 30Z" stroke="rgba(50,50,50,1)" stroke-width="2" fill-opacity="1" fill="#ffffff"></path><g id="SvgjsG1021"><text id="SvgjsText1022" font-family="微软雅黑" text-anchor="middle" font-size="13px" width="68px" fill="#323232" font-weight="400" align="middle" anchor="middle" family="微软雅黑" size="13px" weight="400" font-style="" opacity="1" y="5.05" transform="rotate(0)"><tspan id="SvgjsTspan1023" dy="16" x="44"><tspan id="SvgjsTspan1024" style="text-decoration:;">4KB</tspan></tspan></text></g></g><g id="SvgjsG1025" transform="translate(430.5,143.5)"><path id="SvgjsPath1026" d="M 0 0L 88 0L 88 30L 0 30Z" stroke="rgba(50,50,50,1)" stroke-width="2" fill-opacity="1" fill="#ffffff"></path><g id="SvgjsG1027"><text id="SvgjsText1028" font-family="微软雅黑" text-anchor="middle" font-size="13px" width="68px" fill="#323232" font-weight="400" align="middle" anchor="middle" family="微软雅黑" size="13px" weight="400" font-style="" opacity="1" y="5.05" transform="rotate(0)"><tspan id="SvgjsTspan1029" dy="16" x="44"><tspan id="SvgjsTspan1030" style="text-decoration:;">4KB</tspan></tspan></text></g></g><g id="SvgjsG1031" transform="translate(620.5,143.5)"><path id="SvgjsPath1032" d="M 0 30Q 9 30 9 27L 9 18Q 9 15 22 15Q 9 15 9 12L 9 3Q 9 0 0 0" stroke="rgba(50,50,50,1)" stroke-width="2" fill="none"></path><path id="SvgjsPath1033" d="M 0 0L 107 0L 107 30L 0 30Z" stroke="none" fill="none"></path><g id="SvgjsG1034"><text id="SvgjsText1035" font-family="微软雅黑" text-anchor="start" font-size="13px" width="80px" fill="#323232" font-weight="400" align="middle" anchor="start" family="微软雅黑" size="13px" weight="400" font-style="" opacity="1" y="-2.95" transform="rotate(0)"><tspan id="SvgjsTspan1036" dy="16" x="27"><tspan id="SvgjsTspan1037" style="text-decoration:;">数据以固定分</tspan></tspan><tspan id="SvgjsTspan1038" dy="16" x="27"><tspan id="SvgjsTspan1039" style="text-decoration:;">片存储</tspan></tspan></text></g></g><g id="SvgjsG1040" transform="translate(38.5,143.5)"><path id="SvgjsPath1041" d="M 0 0L 88 0L 88 30L 0 30Z" stroke="rgba(50,50,50,1)" stroke-width="2" fill-opacity="1" fill="#e6ffcc"></path><g id="SvgjsG1042"><text id="SvgjsText1043" font-family="微软雅黑" text-anchor="middle" font-size="13px" width="68px" fill="#323232" font-weight="400" align="middle" anchor="middle" family="微软雅黑" size="13px" weight="400" font-style="" opacity="1" y="5.05" transform="rotate(0)"><tspan id="SvgjsTspan1044" dy="16" x="44"><tspan id="SvgjsTspan1045" style="text-decoration:;">U64</tspan></tspan></text></g></g><g id="SvgjsG1046" transform="translate(136.5,143.5)"><path id="SvgjsPath1047" d="M 0 0L 88 0L 88 30L 0 30Z" stroke="rgba(50,50,50,1)" stroke-width="2" fill-opacity="1" fill="#e6ffcc"></path><g id="SvgjsG1048"><text id="SvgjsText1049" font-family="微软雅黑" text-anchor="middle" font-size="13px" width="68px" fill="#000000" font-weight="400" align="middle" anchor="middle" family="微软雅黑" size="13px" weight="400" font-style="" opacity="1" y="5.05" transform="rotate(0)"><tspan id="SvgjsTspan1050" dy="16" x="44"><tspan id="SvgjsTspan1051" style="text-decoration:;">U64</tspan></tspan></text></g></g><g id="SvgjsG1052" transform="matrix(6.123233995736766e-17,1,-1,6.123233995736766e-17,127.5,184.5)"><path id="SvgjsPath1053" d="M 0 85Q 9 85 9 76.5L 9 51Q 9 42.5 22 42.5Q 9 42.5 9 34L 9 8.5Q 9 0 0 0" stroke="rgba(50,50,50,1)" stroke-width="2" fill="none"></path><path id="SvgjsPath1054" d="M 0 0L 98 0L 98 85L 0 85Z" stroke="none" fill="none"></path><g id="SvgjsG1055"><text id="SvgjsText1056" font-family="微软雅黑" text-anchor="start" font-size="13px" width="71px" fill="#323232" font-weight="400" align="middle" anchor="start" family="微软雅黑" size="13px" weight="400" font-style="" opacity="1" y="32.55" transform="rotate(0)"></text></g></g><g id="SvgjsG1057" transform="translate(25,201.5)"><path id="SvgjsPath1058" d="M 0 0L 120 0L 120 40L 0 40Z" stroke="none" fill="none"></path><g id="SvgjsG1059"><text id="SvgjsText1060" font-family="微软雅黑" text-anchor="middle" font-size="12px" width="120px" fill="#323232" font-weight="400" align="middle" anchor="middle" family="微软雅黑" size="12px" weight="400" font-style="" opacity="1" y="10.7" transform="rotate(0)"><tspan id="SvgjsTspan1061" dy="15" x="60"><tspan id="SvgjsTspan1062" style="text-decoration:;">文件列表索引头</tspan></tspan></text></g></g><g id="SvgjsG1063" transform="matrix(6.123233995736766e-17,1,-1,6.123233995736766e-17,223,184.5)"><path id="SvgjsPath1064" d="M 0 85Q 9 85 9 76.5L 9 51Q 9 42.5 22 42.5Q 9 42.5 9 34L 9 8.5Q 9 0 0 0" stroke="rgba(50,50,50,1)" stroke-width="2" fill="none"></path><path id="SvgjsPath1065" d="M 0 0L 98 0L 98 85L 0 85Z" stroke="none" fill="none"></path><g id="SvgjsG1066"><text id="SvgjsText1067" font-family="微软雅黑" text-anchor="start" font-size="13px" width="71px" fill="#323232" font-weight="400" align="middle" anchor="start" family="微软雅黑" size="13px" weight="400" font-style="" opacity="1" y="32.55" transform="rotate(0)"></text></g></g><g id="SvgjsG1068" transform="translate(125.5,201.5)"><path id="SvgjsPath1069" d="M 0 0L 120 0L 120 40L 0 40Z" stroke="none" fill="none"></path><g id="SvgjsG1070"><text id="SvgjsText1071" font-family="微软雅黑" text-anchor="middle" font-size="12px" width="120px" fill="#323232" font-weight="400" align="middle" anchor="middle" family="微软雅黑" size="12px" weight="400" font-style="" opacity="1" y="10.7" transform="rotate(0)"><tspan id="SvgjsTspan1072" dy="15" x="60"><tspan id="SvgjsTspan1073" style="text-decoration:;">失效块列表索引头</tspan></tspan></text></g></g><g id="SvgjsG1074" transform="matrix(6.123233995736766e-17,1,-1,6.123233995736766e-17,222.49999999999994,25.00000000000012)"><path id="SvgjsPath1075" d="M 109.49999999999983 0Q 100.49999999999983 0 100.49999999999983 9L 100.49999999999983 82.25000000000004Q 100.49999999999983 91.25000000000004 87.49999999999983 91.25000000000004Q 100.49999999999983 91.25000000000004 100.49999999999983 100.25000000000004L 100.49999999999983 173.50000000000009Q 100.49999999999983 182.50000000000009 109.49999999999983 182.50000000000009" stroke="rgba(50,50,50,1)" stroke-width="2" fill="none"></path><path id="SvgjsPath1076" d="M 0 0L 109.49999999999983 0L 109.49999999999983 182.50000000000009L 0 182.50000000000009Z" stroke="none" fill="none"></path><g id="SvgjsG1077"><text id="SvgjsText1078" font-family="微软雅黑" text-anchor="end" font-size="13px" width="83px" fill="#323232" font-weight="400" align="middle" anchor="end" family="微软雅黑" size="13px" weight="400" font-style="" opacity="1" y="81.30000000000004" transform="rotate(0)"></text></g></g><g id="SvgjsG1079" transform="translate(71.25000000000003,71.5)"><path id="SvgjsPath1080" d="M 0 0L 120 0L 120 40L 0 40Z" stroke="none" fill="none"></path><g id="SvgjsG1081"><text id="SvgjsText1082" font-family="微软雅黑" text-anchor="middle" font-size="13px" width="120px" fill="#323232" font-weight="400" align="middle" anchor="middle" family="微软雅黑" size="13px" weight="400" font-style="" opacity="1" y="10.05" transform="rotate(0)"><tspan id="SvgjsTspan1083" dy="16" x="60"><tspan id="SvgjsTspan1084" style="text-decoration:;">分区头</tspan></tspan></text></g></g><g id="SvgjsG1085" transform="translate(304.5,225.5)"><path id="SvgjsPath1086" d="M 0 0L 88 0L 88 30L 0 30Z" stroke="rgba(50,50,50,1)" stroke-width="2" fill-opacity="1" fill="#ffffff"></path><g id="SvgjsG1087"><text id="SvgjsText1088" font-family="微软雅黑" text-anchor="middle" font-size="13px" width="68px" fill="#323232" font-weight="400" align="middle" anchor="middle" family="微软雅黑" size="13px" weight="400" font-style="" opacity="1" y="5.05" transform="rotate(0)"><tspan id="SvgjsTspan1089" dy="16" x="44"><tspan id="SvgjsTspan1090" style="text-decoration:;">U16</tspan></tspan></text></g></g><g id="SvgjsG1091" transform="translate(400.5,225.5)"><path id="SvgjsPath1092" d="M 0 0L 88 0L 88 30L 0 30Z" stroke="rgba(50,50,50,1)" stroke-width="2" fill-opacity="1" fill="#ffffff"></path><g id="SvgjsG1093"><text id="SvgjsText1094" font-family="微软雅黑" text-anchor="middle" font-size="13px" width="68px" fill="#323232" font-weight="400" align="middle" anchor="middle" family="微软雅黑" size="13px" weight="400" font-style="" opacity="1" y="5.05" transform="rotate(0)"><tspan id="SvgjsTspan1095" dy="16" x="44"><tspan id="SvgjsTspan1096" style="text-decoration:;">U64</tspan></tspan></text></g></g><g id="SvgjsG1097" transform="translate(495.5,225.5)"><path id="SvgjsPath1098" d="M 0 0L 144 0L 159 15L 144 30L 0 30L 0 0Z" stroke="rgba(50,50,50,1)" stroke-width="2" fill-opacity="1" fill="#ffcccc"></path><g id="SvgjsG1099"><text id="SvgjsText1100" font-family="微软雅黑" text-anchor="middle" font-size="13px" width="139px" fill="#323232" font-weight="400" align="middle" anchor="middle" family="微软雅黑" size="13px" weight="400" font-style="" opacity="1" y="5.05" transform="rotate(0)"></text></g></g><g id="SvgjsG1101" transform="matrix(6.123233995736766e-17,1,-1,6.123233995736766e-17,391,261.5)"><path id="SvgjsPath1102" d="M 0 85Q 9 85 9 76.5L 9 51Q 9 42.5 22 42.5Q 9 42.5 9 34L 9 8.5Q 9 0 0 0" stroke="rgba(50,50,50,1)" stroke-width="2" fill="none"></path><path id="SvgjsPath1103" d="M 0 0L 98 0L 98 85L 0 85Z" stroke="none" fill="none"></path><g id="SvgjsG1104"><text id="SvgjsText1105" font-family="微软雅黑" text-anchor="start" font-size="13px" width="71px" fill="#323232" font-weight="400" align="middle" anchor="start" family="微软雅黑" size="13px" weight="400" font-style="" opacity="1" y="32.55" transform="rotate(0)"></text></g></g><g id="SvgjsG1106" transform="translate(288.5,286.5)"><path id="SvgjsPath1107" d="M 0 0L 120 0L 120 40L 0 40Z" stroke="none" fill="none"></path><g id="SvgjsG1108"><text id="SvgjsText1109" font-family="微软雅黑" text-anchor="middle" font-size="13px" width="120px" fill="#323232" font-weight="400" align="middle" anchor="middle" family="微软雅黑" size="13px" weight="400" font-style="" opacity="1" y="2.05" transform="rotate(0)"><tspan id="SvgjsTspan1110" dy="16" x="60"><tspan id="SvgjsTspan1111" style="text-decoration:;">数据段长度</tspan></tspan><tspan id="SvgjsTspan1112" dy="16" x="60"><tspan id="SvgjsTspan1113" style="text-decoration:;">（如果填满则为0）</tspan></tspan></text></g></g><g id="SvgjsG1114" transform="matrix(6.123233995736766e-17,1,-1,6.123233995736766e-17,487,261.5)"><path id="SvgjsPath1115" d="M 0 85Q 9 85 9 76.5L 9 51Q 9 42.5 22 42.5Q 9 42.5 9 34L 9 8.5Q 9 0 0 0" stroke="rgba(50,50,50,1)" stroke-width="2" fill="none"></path><path id="SvgjsPath1116" d="M 0 0L 98 0L 98 85L 0 85Z" stroke="none" fill="none"></path><g id="SvgjsG1117"><text id="SvgjsText1118" font-family="微软雅黑" text-anchor="start" font-size="13px" width="71px" fill="#323232" font-weight="400" align="middle" anchor="start" family="微软雅黑" size="13px" weight="400" font-style="" opacity="1" y="32.55" transform="rotate(0)"></text></g></g><g id="SvgjsG1119" transform="translate(384.5,286.5)"><path id="SvgjsPath1120" d="M 0 0L 120 0L 120 40L 0 40Z" stroke="none" fill="none"></path><g id="SvgjsG1121"><text id="SvgjsText1122" font-family="微软雅黑" text-anchor="middle" font-size="13px" width="120px" fill="#323232" font-weight="400" align="middle" anchor="middle" family="微软雅黑" size="13px" weight="400" font-style="" opacity="1" y="2.05" transform="rotate(0)"><tspan id="SvgjsTspan1123" dy="16" x="60"><tspan id="SvgjsTspan1124" style="text-decoration:;">下个分片索引</tspan></tspan><tspan id="SvgjsTspan1125" dy="16" x="60"><tspan id="SvgjsTspan1126" style="text-decoration:;">(链表存储)</tspan></tspan></text></g></g><g id="SvgjsG1127" transform="matrix(6.123233995736766e-17,1,-1,6.123233995736766e-17,636.25,263.5)"><path id="SvgjsPath1128" d="M 0 139.5Q 9 139.5 9 130.5L 9 78.75Q 9 69.75 22 69.75Q 9 69.75 9 60.75L 9 9Q 9 0 0 0" stroke="rgba(50,50,50,1)" stroke-width="2" fill="none"></path><path id="SvgjsPath1129" d="M 0 0L 96 0L 96 139.5L 0 139.5Z" stroke="none" fill="none"></path><g id="SvgjsG1130"><text id="SvgjsText1131" font-family="微软雅黑" text-anchor="start" font-size="13px" width="69px" fill="#323232" font-weight="400" align="middle" anchor="start" family="微软雅黑" size="13px" weight="400" font-style="" opacity="1" y="59.8" transform="rotate(0)"></text></g></g><g id="SvgjsG1132" transform="translate(506.5,276)"><path id="SvgjsPath1133" d="M 0 0L 120 0L 120 40L 0 40Z" stroke="none" fill="none"></path><g id="SvgjsG1134"><text id="SvgjsText1135" font-family="微软雅黑" text-anchor="middle" font-size="13px" width="120px" fill="#323232" font-weight="400" align="middle" anchor="middle" family="微软雅黑" size="13px" weight="400" font-style="" opacity="1" y="10.05" transform="rotate(0)"><tspan id="SvgjsTspan1136" dy="16" x="60"><tspan id="SvgjsTspan1137" style="text-decoration:;">数据段</tspan></tspan></text></g></g><g id="SvgjsG1138" transform="translate(526.5,143.5)"><path id="SvgjsPath1139" d="M 0 0L 73.33333333333333 0L 88 15L 73.33333333333333 30L 0 30L 0 0Z" stroke="rgba(50,50,50,1)" stroke-width="2" fill-opacity="1" fill="#ffffff"></path><g id="SvgjsG1140"><text id="SvgjsText1141" font-family="微软雅黑" text-anchor="middle" font-size="13px" width="68px" fill="#323232" font-weight="400" align="middle" anchor="middle" family="微软雅黑" size="13px" weight="400" font-style="" opacity="1" y="5.05" transform="rotate(0)"><tspan id="SvgjsTspan1142" dy="16" x="44"><tspan id="SvgjsTspan1143" style="text-decoration:;">4KB</tspan></tspan></text></g></g></svg>